<svg width="89" height="87" viewBox="0 0 89 87" fill="none" xmlns="http://www.w3.org/2000/svg">
<path d="M51.9029 1H34.5631C32.354 1 30.5631 2.79086 30.5631 5V27.6C30.5631 29.8091 28.7722 31.6 26.5631 31.6H5C2.79086 31.6 1 33.3909 1 35.6V51.4C1 53.6091 2.79086 55.4 5 55.4H26.5631C28.7722 55.4 30.5631 57.1909 30.5631 59.4V82C30.5631 84.2091 32.354 86 34.5631 86H51.9029C54.1121 86 55.9029 84.2091 55.9029 82V59.4C55.9029 57.1909 57.6938 55.4 59.9029 55.4H84C86.2091 55.4 88 53.6091 88 51.4V35.6C88 33.3909 86.2091 31.6 84 31.6H59.9029C57.6938 31.6 55.9029 29.8091 55.9029 27.6V5C55.9029 2.79086 54.112 1 51.9029 1Z" fill="#A5A4A4" stroke="black" stroke-dasharray="3 3"/>
</svg>
